<?xml version="1.0" encoding="UTF-8" standalone="no"?>
<!DOCTYPE svg PUBLIC "-//W3C//DTD SVG 1.1//EN" "http://www.w3.org/Graphics/SVG/1.1/DTD/svg11.dtd">
<svg width="100%" height="100%" viewBox="0 0 547 167" version="1.1" xmlns="http://www.w3.org/2000/svg" xmlns:xlink="http://www.w3.org/1999/xlink" xml:space="preserve" xmlns:serif="http://www.serif.com/" style="fill-rule:evenodd;clip-rule:evenodd;stroke-linejoin:round;stroke-miterlimit:2;">
    <g transform="matrix(1,0,0,1,-1,20)">
        <path d="M529.3,102.42C533.06,106.15 534.08,106.78 537.77,106.78C542.69,106.78 545.15,102.47 545.15,99.41L545.15,53.93L532.86,53.93L532.86,90.2L500.9,57.01C497.14,53.28 495.98,52.71 492.3,52.71C487.38,52.71 484.92,57.02 484.92,60.08L484.92,105.56L497.21,105.56L497.21,69.3L529.3,102.42Z" style="fill:rgb(201,20,48);fill-rule:nonzero;"/>
        <path d="M443.74,95.73C431.1,95.73 424.69,94.81 424.69,79.75C424.69,64.69 431.11,63.77 443.74,63.77C456.37,63.77 462.98,64.69 462.98,79.75C462.98,94.81 456.37,95.73 443.74,95.73M443.74,52.09C423.27,52.09 411.78,57.16 411.78,79.75C411.78,102.34 423.27,107.41 443.74,107.41C464.21,107.41 475.7,102.34 475.7,79.75C475.7,57.16 464.2,52.09 443.74,52.09" style="fill:rgb(201,20,48);fill-rule:nonzero;"/>
        <path d="M260.53,105.56L272.25,105.56L272.21,53.93L260.53,53.93L260.53,105.56Z" style="fill:rgb(201,20,48);fill-rule:nonzero;"/>
        <path d="M235.09,85.96C242.47,84.13 246.66,78.52 246.66,70.86C246.66,60.42 239.76,53.93 228.67,53.93L191.75,53.93L191.75,105.56L202.81,105.56L202.81,87.12L222.48,87.12L234.7,105.56L248.91,105.56L235.09,85.96ZM202.8,65L226.35,65C233.29,65 234.12,68.14 234.12,71.13C234.12,74.12 233.21,77.3 226.39,77.3L202.8,77.3L202.8,65Z" style="fill:rgb(201,20,48);fill-rule:nonzero;"/>
        <path d="M320.33,73.13L309.98,73.13C301.1,73.13 299.29,71.45 299.29,68.29C299.29,64.42 305.23,62.92 313.62,62.92C320.99,62.92 327.94,64.16 336.01,67.94L342.2,59.23C333.4,53.91 324.45,52.09 313.47,52.09C296.67,52.09 286.86,58.29 286.86,68.86C286.86,80.37 296.38,84.29 308.65,84.17L320.05,84.17C331.26,84.17 332.76,85.46 332.76,89.74C332.76,93.98 326.55,96.6 316.57,96.6C307.79,96.6 298.75,94.86 290.83,89.57L284.55,98.49C292.97,105.19 303.34,107.5 316.5,107.5C334.86,107.5 345.4,100.81 345.4,89.18C345.4,78.48 336.96,73.13 320.33,73.13" style="fill:rgb(201,20,48);fill-rule:nonzero;"/>
        <path d="M148.1,67.4L159.16,86.5L137.03,86.5L148.09,67.45M111.79,105.56L125.97,105.56L131.5,96.34L164.69,96.34L170.22,105.56L184.36,105.56L154.24,55.78C153.01,53.94 150.55,52.71 148.09,52.71C145.63,52.71 143.17,53.94 141.94,55.78L111.79,105.56Z" style="fill:rgb(201,20,48);fill-rule:nonzero;"/>
        <path d="M30.41,63.92L30.41,82.34L57.43,82.34L57.43,63.92L43.92,51.64L30.41,63.92Z" style="fill:rgb(201,20,48);fill-rule:nonzero;"/>
        <path d="M43.92,30.13L14.44,56.55L14.44,95.85L73.39,95.85L73.39,56.55L43.92,30.13ZM83.22,54.13L83.22,99.09C83.22,102.66 80.32,105.56 76.75,105.56L11.11,105.56C7.54,105.56 4.64,102.66 4.64,99.09L4.64,54.13C4.64,52.29 5.43,50.53 6.8,49.31L39.61,20C42.06,17.81 45.77,17.81 48.23,20L81.06,49.3C82.43,50.53 83.22,52.29 83.22,54.13" style="fill:rgb(201,20,48);fill-rule:nonzero;"/>
        <path d="M352.16,53.93L352.16,65L373.67,65L373.67,105.56L385.35,105.56L385.35,65L406.24,65L406.24,53.93L352.16,53.93Z" style="fill:rgb(201,20,48);fill-rule:nonzero;"/>
    </g>
</svg>
