<svg width="200" height="160" viewBox="0 0 82 24" fill="none" xmlns="http://www.w3.org/2000/svg"><g clip-path="url(#wolf_logo_svg)"><path d="M29.5338 -0.273438L23.8984 24.2703H48.4422L54.0776 -0.273438H29.5338Z" fill="#D2D2D2"></path><path d="M28.4297 11.9997C28.4299 10.6106 28.7037 9.23524 29.2355 7.952C29.7672 6.66877 30.5465 5.50283 31.5289 4.52077C32.5112 3.53871 33.6774 2.75976 34.9608 2.22838C36.2442 1.69701 37.6197 1.42362 39.0087 1.42383C39.4095 1.42353 39.81 1.44631 40.2081 1.49205C42.7882 1.78656 45.1697 3.02015 46.8987 4.95771C48.6276 6.89526 49.5832 9.40129 49.5832 11.9981C49.5832 14.5949 48.6276 17.101 46.8987 19.0385C45.1697 20.9761 42.7882 22.2097 40.2081 22.5042C39.81 22.5499 39.4095 22.5727 39.0087 22.5724C37.6198 22.573 36.2444 22.3 34.961 21.769C33.6776 21.238 32.5115 20.4593 31.5291 19.4775C30.5467 18.4957 29.7673 17.33 29.2355 16.0469C28.7037 14.7638 28.4299 13.3886 28.4297 11.9997Z" fill="#E10000"></path><path d="M55.3019 2.20703L50.8438 21.6278H62.8237L64.3547 14.9898H60.244L63.2061 2.20703H55.3019Z" fill="#D2D2D2"></path><path d="M69.0463 2.20703L64.5469 21.6278H72.4209L73.7869 15.7291H78.5957L79.8776 10.2H75.0783L75.5543 8.10578H80.3631L81.7307 2.20703H69.0463Z" fill="#D2D2D2"></path><path d="M20.4111 2.19531L18.7944 9.36012L17.1761 2.19531H10.4063L8.79601 9.33473L7.18091 2.19531H0.5L4.88836 21.6304H11.8279L13.6096 13.7453L15.3912 21.6304H22.7115L27.0999 2.19531H20.4111Z" fill="#D2D2D2"></path></g><defs><clipPath id="wolf_logo_svg"><rect width="81.2308" height="24" fill="white" transform="translate(0.5)"></rect></clipPath></defs></svg>
